:SAMPLES-PER-SECOND 30
:FULLY-SPECIFIED
:DEGREES
672
root  -47.3898 34.6587 -0.600501 178.634 49.7414 171.021
RightUpLeg  -9.24929 -24.4045 -11.7486
RightLeg  31.6125 -8.55709 -4.51907
RightFoot  0.179269 -5.16184e-005 0.205576
RightToes  -40.2345 -0.220359 -0.316443
Spine  -1.24145 1.12419 0.594001
Spine1  -2.3089 2.55968 1.66447
HEad  -51.6998 23.37 5.63621
LeftShoulder1  -1.94126e-019 -3.10601e-018 -2.51263e-017
LeftArm  -15.5336 6.90749 -67.7572
LeftForeArm  30.9217 -57.4935 -15.0791
LeftHand  -0.608346 -0.453378 12.1894
RightShoulder  -4.96962e-017 0 -2.36833e-017
RightArm  -15.6017 -10.2676 72.3456
RightForeArm  51.6964 26.3851 2.99734
RightHand  -0.37751 -1.7168 -11.7792
LeftUpLeg  -9.03908 -1.02572 -9.77948
LeftLeg  4.31846 16.911 0.184613
LeftFoot  7.17057 -0.136179 2.33471
LeftToes  -14.546 1.83942e-006 5.51297e-008
673
root  -47.3949 34.6353 -0.842152 177.996 50.5043 170.233
RightUpLeg  -9.77288 -23.7248 -12.4746
RightLeg  32.5898 -8.59924 -4.72977
RightFoot  0.395332 0.00168375 0.165232
RightToes  -40.9923 -0.226458 -0.320659
Spine  -1.28087 0.977826 0.351208
Spine1  -2.41607 2.22286 1.22951
HEad  -51.2731 23.2939 5.27369
LeftShoulder1  -1.94126e-019 -3.10601e-018 -2.51263e-017
LeftArm  -12.2038 6.22978 -69.1199
LeftForeArm  31.0557 -51.0767 -11.539
LeftHand  -0.591821 -1.44519 10.2144
RightShoulder  -4.96962e-017 0 -2.36833e-017
RightArm  -13.9533 -8.78762 74.0011
RightForeArm  51.3591 30.8865 3.97383
RightHand  -0.405056 -1.39989 -11.6806
LeftUpLeg  -8.51075 -0.559149 -10.4698
LeftLeg  3.7411 17.1582 0.0169831
LeftFoot  6.89156 -0.127701 2.28215
LeftToes  -14.8344 1.83942e-006 5.51297e-008
674
root  -47.3849 34.6183 -1.0681 177.763 51.22 169.917
RightUpLeg  -10.0532 -22.9532 -12.7854
RightLeg  33.0118 -8.91803 -4.98788
RightFoot  0.646853 0.00438816 0.115842
RightToes  -41.2617 -0.228998 -0.322416
Spine  -1.29916 0.820092 0.228389
Spine1  -2.48133 1.86256 1.03461
HEad  -51.2817 23.5476 4.81993
LeftShoulder1  -1.94126e-019 -3.10601e-018 -2.51263e-017
LeftArm  -9.37063 6.65538 -71.0786
LeftForeArm  33.9818 -44.9735 -8.86784
LeftHand  -0.579834 -2.84681 8.39985
RightShoulder  -4.96962e-017 0 -2.36833e-017
RightArm  -11.7349 -8.09035 75.249
RightForeArm  50.8465 35.3572 5.03993
RightHand  -0.399219 -1.21987 -11.0315
LeftUpLeg  -8.256 -0.0781301 -10.856
LeftLeg  3.61363 17.3336 -0.020803
LeftFoot  6.44259 -0.112804 2.16565
LeftToes  -14.0891 1.83942e-006 5.51297e-008
675
root  -47.3581 34.6118 -1.27227 177.644 52.1509 169.712
RightUpLeg  -10.2529 -21.8612 -12.8651
RightLeg  33.0474 -9.49422 -5.31217
RightFoot  0.907079 0.00787649 0.0592474
RightToes  -41.4019 -0.230404 -0.323393
Spine  -1.24521 0.704954 0.135933
Spine1  -2.40629 1.5886 0.896552
HEad  -51.6774 24.2203 4.34867
LeftShoulder1  -1.94126e-019 -3.10601e-018 -2.51263e-017
LeftArm  -7.7979 8.16456 -73.404
LeftForeArm  37.2022 -39.5287 -6.9253
LeftHand  -0.567986 -4.0028 7.28941
RightShoulder  -4.96962e-017 0 -2.36833e-017
RightArm  -9.23815 -7.73699 76.2164
RightForeArm  51.7261 38.9985 5.92854
RightHand  -0.455742 -0.700131 -11.2609
LeftUpLeg  -8.14398 0.162357 -11.1053
LeftLeg  3.68366 17.9756 7.24272e-005
LeftFoot  5.83461 -0.096188 2.0489
LeftToes  -12.7627 1.83942e-006 5.51297e-008
676
root  -47.3086 34.6135 -1.4595 177.713 53.1802 169.635
RightUpLeg  -10.3991 -20.6238 -12.7552
RightLeg  32.7753 -10.1567 -5.61288
RightFoot  1.10988 0.0112261 0.00783034
RightToes  -41.072 -0.230902 -0.323747
Spine  -1.18451 0.639871 0.0544506
Spine1  -2.31918 1.41522 0.779904
HEad  -52.2083 25.2284 4.16225
LeftShoulder1  -1.94126e-019 -3.10601e-018 -2.51263e-017
LeftArm  -8.01514 10.6053 -76.0009
LeftForeArm  38.9823 -34.4634 -5.45574
LeftHand  -0.559783 -4.34816 6.95368
RightShoulder  -4.96962e-017 0 -2.36833e-017
RightArm  -7.01094 -8.05754 76.9419
RightForeArm  53.374 42.1572 6.7275
RightHand  -0.537971 0.127809 -11.3724
LeftUpLeg  -8.11972 0.354983 -11.2169
LeftLeg  3.75048 18.7281 0.0215434
LeftFoot  5.33904 -0.0842128 1.96757
LeftToes  -11.8723 1.83942e-006 5.51297e-008
677
root  -47.2611 34.6134 -1.63714 178.053 53.9909 169.813
RightUpLeg  -10.4495 -19.8937 -12.5694
RightLeg  32.3315 -10.6513 -5.77416
RightFoot  1.36104 0.0154269 -0.0533585
RightToes  -40.9763 -0.23072 -0.323631
Spine  -1.13884 0.596341 -0.0191228
Spine1  -2.26007 1.29688 0.670435
HEad  -52.8648 26.2171 4.16371
LeftShoulder1  -1.94126e-019 -3.10601e-018 -2.51263e-017
LeftArm  -10.5776 13.8012 -78.6564
LeftForeArm  38.8522 -29.802 -4.52871
LeftHand  -0.55354 -4.49546 6.7855
RightShoulder  -4.96962e-017 0 -2.36833e-017
RightArm  -5.68389 -9.17702 77.4241
RightForeArm  55.1435 44.5617 7.36161
RightHand  -0.618799 0.798719 -11.7063
LeftUpLeg  -8.28054 0.539476 -11.2054
LeftLeg  4.07748 19.2604 0.129971
LeftFoot  4.73233 -0.0682793 1.81388
LeftToes  -11.128 1.83942e-006 5.51297e-008
678
root  -47.1943 34.6067 -1.80992 178.433 54.5706 170.026
RightUpLeg  -10.3241 -19.7847 -12.4853
RightLeg  31.7447 -10.7729 -5.69785
RightFoot  1.50143 0.0174866 -0.0823606
RightToes  -40.8716 -0.230082 -0.323199
Spine  -1.08648 0.628084 -0.177182
Spine1  -2.18367 1.34319 0.37715
HEad  -53.4135 26.8606 4.56368
LeftShoulder1  -1.94126e-019 -3.10601e-018 -2.51263e-017
LeftArm  -14.1956 17.3004 -80.8596
LeftForeArm  37.7473 -25.545 -3.90463
LeftHand  -0.546926 -4.23271 6.87542
RightShoulder  -4.96962e-017 0 -2.36833e-017
RightArm  -5.48431 -11.0199 77.8641
RightForeArm  55.9336 45.8714 7.73742
RightHand  -0.66968 1.24097 -11.8474
LeftUpLeg  -8.45833 0.785746 -11.1944
LeftLeg  4.48429 19.5045 0.267346
LeftFoot  4.07851 -0.0515274 1.60863
LeftToes  -10.2129 1.83942e-006 5.51297e-008
679
root  -47.1216 34.5912 -1.9728 178.922 54.9284 170.304
RightUpLeg  -10.1803 -19.9771 -12.4298
RightLeg  31.1885 -10.6484 -5.50274
RightFoot  1.55506 0.0177475 -0.0848688
RightToes  -40.7469 -0.229216 -0.322606
Spine  -1.07073 0.730707 -0.352284
Spine1  -2.17318 1.54549 0.0357004
HEad  -53.8641 27.1522 5.00764
LeftShoulder1  -1.94126e-019 -3.10601e-018 -2.51263e-017
LeftArm  -18.1811 20.8371 -82.6357
LeftForeArm  36.6033 -21.3351 -3.27835
LeftHand  -0.531227 -4.03833 6.81238
RightShoulder  -4.96962e-017 0 -2.36833e-017
RightArm  -6.20802 -13.2834 78.1603
RightForeArm  55.676 45.6461 7.67386
RightHand  -0.681558 1.36122 -11.8491
LeftUpLeg  -8.74178 0.857552 -11.159
LeftLeg  5.04117 19.6945 0.457512
LeftFoot  3.3477 -0.0352082 1.36637
LeftToes  -9.44636 1.83942e-006 5.51297e-008
680
root  -47.0485 34.5656 -2.10849 179.439 55.156 170.609
RightUpLeg  -10.1036 -20.0192 -12.3434
RightLeg  30.8248 -10.5231 -5.3555
RightFoot  1.55067 0.0168929 -0.0714512
RightToes  -40.7799 -0.228348 -0.322008
Spine  -1.06009 0.928109 -0.558089
Spine1  -2.17036 1.9532 -0.376787
HEad  -54.3296 27.1861 5.46847
LeftShoulder1  -1.94126e-019 -3.10601e-018 -2.51263e-017
LeftArm  -21.6329 24.178 -83.812
LeftForeArm  35.1092 -17.1859 -2.67888
LeftHand  -0.524846 -3.71959 6.94955
RightShoulder  -4.96962e-017 0 -2.36833e-017
RightArm  -7.74541 -15.6169 78.4197
RightForeArm  55.067 43.504 7.02642
RightHand  -0.68377 1.3955 -11.8296
LeftUpLeg  -9.21409 1.0499 -11.0926
LeftLeg  5.94894 19.6368 0.76144
LeftFoot  2.57099 -0.0208753 1.09184
LeftToes  -9.06163 1.83942e-006 5.51297e-008
681
root  -46.9686 34.5233 -2.25525 179.984 54.8607 170.966
RightUpLeg  -9.86646 -20.5116 -12.3623
RightLeg  30.5979 -10.3241 -5.20511
RightFoot  1.4433 0.0139861 -0.0295238
RightToes  -40.782 -0.227705 -0.321557
Spine  -1.05664 1.08387 -0.762055
Spine1  -2.16864 2.30292 -0.794238
HEad  -54.7544 26.9144 5.65706
LeftShoulder1  -1.94126e-019 -3.10601e-018 -2.51263e-017
LeftArm  -24.1902 27.1941 -84.3612
LeftForeArm  33.9187 -13.1486 -2.11091
LeftHand  -0.50092 -3.26657 6.96302
RightShoulder  -4.96962e-017 0 -2.36833e-017
RightArm  -9.95581 -17.7156 78.6325
RightForeArm  54.5293 39.3148 5.8561
RightHand  -0.652713 1.18316 -11.6489
LeftUpLeg  -9.7873 0.921259 -11.0588
LeftLeg  7.22003 19.4247 1.17706
LeftFoot  1.65104 -0.00872808 0.767323
LeftToes  -8.46721 1.83942e-006 5.51297e-008
682
root  -46.8933 34.4573 -2.37533 -179.429 54.4435 171.366
RightUpLeg  -9.85733 -20.6783 -12.2532
RightLeg  30.8366 -10.4891 -5.34122
RightFoot  1.27765 0.00988671 0.0278231
RightToes  -40.9946 -0.227513 -0.32141
Spine  -1.09175 1.34565 -0.95957
Spine1  -2.2193 2.92708 -1.22474
HEad  -54.9733 26.5162 5.70491
LeftShoulder1  -1.94126e-019 -3.10601e-018 -2.51263e-017
LeftArm  -25.621 30.2849 -84.2631
LeftForeArm  33.7824 -11.6134 -1.97377
LeftHand  -0.482512 -2.85988 7.01963
RightShoulder  -4.96962e-017 0 -2.36833e-017
RightArm  -12.8286 -19.3301 78.7768
RightForeArm  54.5972 32.6531 4.21143
RightHand  -0.636734 0.955031 -11.7575
LeftUpLeg  -10.6731 0.769165 -10.9812
LeftLeg  9.07493 19.1113 1.76918
LeftFoot  0.635237 -0.00145145 0.423459
LeftToes  -8.14549 1.83942e-006 5.51297e-008
